<svg width="23" height="23" viewBox="0 0 23 23" fill="none" xmlns="http://www.w3.org/2000/svg">
<path d="M21.0215 9.23755H13.9902V2.2063C13.9902 1.34351 13.2905 0.643799 12.4277 0.643799H10.8652C10.0024 0.643799 9.30273 1.34351 9.30273 2.2063V9.23755H2.27148C1.40869 9.23755 0.708984 9.93726 0.708984 10.8V12.3625C0.708984 13.2253 1.40869 13.925 2.27148 13.925H9.30273V20.9563C9.30273 21.8191 10.0024 22.5188 10.8652 22.5188H12.4277C13.2905 22.5188 13.9902 21.8191 13.9902 20.9563V13.925H21.0215C21.8843 13.925 22.584 13.2253 22.584 12.3625V10.8C22.584 9.93726 21.8843 9.23755 21.0215 9.23755Z" fill="white"/>
</svg>
